<?xml version="1.0" encoding="UTF-8"?>
<svg id="Capa_2" data-name="Capa 2" xmlns="http://www.w3.org/2000/svg" viewBox="0 0 195.47 157.13">
  <defs>
    <style>
      .cls-1 {
        fill: #7c7c7c;
        fill-rule: evenodd;
        stroke-width: 0px;
      }
    </style>
  </defs>
  <g id="Capa_1-2" data-name="Capa 1">
    <g>
      <path class="cls-1" d="m101.19,126.83c3.57,0,6.47,2.9,6.47,6.48s-2.9,6.48-6.47,6.48-6.48-2.9-6.48-6.48c0-3.58,2.9-6.48,6.48-6.48Zm-27.83-22c5.88,0,10.66,4.77,10.66,10.65s-4.78,10.66-10.66,10.66-10.66-4.76-10.66-10.66,4.77-10.65,10.66-10.65Zm46.11-.59c5.05,0,9.14,4.08,9.14,9.12s-4.09,9.14-9.14,9.14-9.14-4.1-9.14-9.14c0-5.04,4.09-9.12,9.14-9.12Zm-31.08-28.68c5.89,0,10.66,4.77,10.66,10.66s-4.76,10.66-10.66,10.66-10.66-4.76-10.66-10.66,4.78-10.66,10.66-10.66Zm9.35-22.4c-28.68-.06-52,23.3-52,51.98s23.32,51.99,52,51.99,52.03-23.3,52-51.99c0-2.05-.26-4.12-.44-5.87-.22-1.69-2.1-2.59-3.54-1.7-1.72,1.06-3.72,1.64-5.73,1.64-6.09,0-10.99-4.88-11.01-10.95,0-.28.04-.57.06-.8.16-1.78-1.66-3.06-3.29-2.33-1.13.51-2.37.76-3.6.77-4.93-.01-8.86-3.94-8.86-8.86,0-.97.16-1.94.48-2.85.5-1.47-.54-3-2.09-3.09-4.71-.26-8.37-4.11-8.37-8.83,0-1.94.9-3.57,1.53-4.98.64-.94.51-2.2-.17-2.85-.67-.63-1.13-.85-1.63-.91-1.87-.22-3.75-.36-5.36-.36Z"/>
      <path class="cls-1" d="m64.18,10.35c3.85,0,6.98,3.12,6.98,6.98s-3.13,6.96-6.98,6.96-6.96-3.11-6.96-6.96c-.01-3.85,3.12-6.98,6.96-6.98Zm-20.29,0c3.85,0,6.98,3.12,6.98,6.98s-3.13,6.96-6.98,6.96-6.97-3.11-6.97-6.96,3.12-6.98,6.97-6.98Zm-20.3,0c3.86,0,6.97,3.12,6.97,6.98s-3.11,6.96-6.97,6.96-6.97-3.11-6.97-6.96,3.12-6.98,6.97-6.98ZM19.61,0C8.81,0,0,8.82,0,19.61v102.21c0,10.8,8.81,19.62,19.61,19.62h28.65l-4.94-7.48h-23.71c-6.79,0-12.15-5.36-12.15-12.14V34.64h180.56v87.17c0,6.78-5.37,12.14-12.16,12.14h-22.36l-4.94,7.48h27.3c10.8,0,19.62-8.82,19.62-19.62V19.61c0-10.79-8.82-19.61-19.62-19.61H19.61Z"/>
      <path class="cls-1" d="m133.45,62.75c0,4.02-3.26,7.26-7.26,7.26s-7.26-3.24-7.26-7.26,3.25-7.26,7.26-7.26c4,0,7.26,3.26,7.26,7.26Z"/>
      <path class="cls-1" d="m147.39,80.04c0,3.15-2.55,5.7-5.69,5.7s-5.7-2.55-5.7-5.7,2.55-5.69,5.7-5.69c3.15,0,5.69,2.55,5.69,5.69Z"/>
    </g>
  </g>
</svg>